<?xml version="1.0" encoding="UTF-8" standalone="no"?>
<!-- Created with Inkscape (http://www.inkscape.org/) -->

<svg
   xmlns:dc="http://purl.org/dc/elements/1.1/"
   xmlns:cc="http://creativecommons.org/ns#"
   xmlns:rdf="http://www.w3.org/1999/02/22-rdf-syntax-ns#"
   xmlns:svg="http://www.w3.org/2000/svg"
   xmlns="http://www.w3.org/2000/svg"
   xmlns:sodipodi="http://sodipodi.sourceforge.net/DTD/sodipodi-0.dtd"
   xmlns:inkscape="http://www.inkscape.org/namespaces/inkscape"
   width="512"
   height="512"
   viewBox="0 0 511.99999 512.00001"
   id="svg2"
   version="1.1"
   inkscape:version="0.91 r13725"
   sodipodi:docname="drawing.svg">
  <defs
     id="defs4" />
  <sodipodi:namedview
     id="base"
     pagecolor="#ffffff"
     bordercolor="#666666"
     borderopacity="1.0"
     inkscape:pageopacity="0.0"
     inkscape:pageshadow="2"
     inkscape:zoom="1.78125"
     inkscape:cx="19.087714"
     inkscape:cy="256"
     inkscape:document-units="px"
     inkscape:current-layer="layer1"
     showgrid="false"
     units="px"
     inkscape:snap-page="false"
     inkscape:window-width="1600"
     inkscape:window-height="1119"
     inkscape:window-x="0"
     inkscape:window-y="28"
     inkscape:window-maximized="1" />
  <metadata
     id="metadata7">
    <rdf:RDF>
      <cc:Work
         rdf:about="">
        <dc:format>image/svg+xml</dc:format>
        <dc:type
           rdf:resource="http://purl.org/dc/dcmitype/StillImage" />
        <dc:title />
      </cc:Work>
    </rdf:RDF>
  </metadata>
  <g
     inkscape:groupmode="layer"
     id="layer10"
     inkscape:label="Layer 9"
     style="display:inline"
     sodipodi:insensitive="true">
    <path
       style="fill:#4c0080;fill-opacity:1;fill-rule:evenodd;stroke:#202020;stroke-width:2;stroke-linecap:butt;stroke-linejoin:miter;stroke-miterlimit:4;stroke-dasharray:none;stroke-opacity:1"
       d="m 19.649123,342.45614 1.122807,128 0,8.98246 4.491228,7.29824 8.421053,3.92983 17.403508,1.68421 148.210531,0 -3.36843,-149.33334 z"
       id="path4211"
       inkscape:connector-curvature="0" />
  </g>
  <g
     inkscape:groupmode="layer"
     id="layer9"
     inkscape:label="Layer 8"
     sodipodi:insensitive="true"
     style="display:inline">
    <path
       style="fill:#001895;fill-opacity:1;fill-rule:evenodd;stroke:#202020;stroke-width:3;stroke-linecap:butt;stroke-linejoin:miter;stroke-miterlimit:4;stroke-dasharray:none;stroke-opacity:1"
       d="m 19.649123,318.31579 0.561403,35.92982 c 0,0 14.200773,-1.58596 21.333334,-1.68421 7.307143,-0.10065 14.621747,0.41 21.894736,1.12281 11.668038,1.14356 23.432771,2.21057 34.807019,5.05264 9.647955,2.41072 19.559865,4.96044 28.070175,10.10526 5.21394,3.15203 9.91612,7.40474 13.47368,12.35087 3.22855,4.48869 4.83323,9.96674 6.73685,15.1579 2.75235,7.50565 4.92052,15.23222 6.73684,23.01754 2.46047,10.54636 4.67482,21.21123 5.61403,32 1.16852,13.42292 0,40.42105 0,40.42105 l 42.10527,0.56141 c 0,0 21.62249,-125.498 -17.96491,-163.36842 C 143.58356,291.2588 19.649123,318.31579 19.649123,318.31579 Z"
       id="path4208"
       inkscape:connector-curvature="0"
       sodipodi:nodetypes="ccaaaaaaaaccac" />
  </g>
  <g
     inkscape:groupmode="layer"
     id="layer8"
     inkscape:label="Layer 7"
     sodipodi:insensitive="true"
     style="display:inline">
    <path
       style="fill:#009caa;fill-opacity:1;fill-rule:evenodd;stroke:#202020;stroke-width:3;stroke-linecap:butt;stroke-linejoin:miter;stroke-miterlimit:4;stroke-dasharray:none;stroke-opacity:1"
       d="m 458.10526,19.649123 c 0,0 -5.99477,6.960467 -6.17544,11.22807 -0.23387,5.524236 3.27626,10.845567 6.73685,15.157895 3.34981,4.174277 9.04536,5.843493 12.91228,9.54386 3.65301,3.495662 8.45147,6.852795 9.54386,11.789473 1.16692,5.273463 -8.87578,13.549361 -3.92983,15.719298 7.79485,3.419834 14.03509,-21.333333 14.03509,-21.333333 l 0,-26.947368 c 0,-2.679357 -1.6268,-5.262138 -3.36842,-7.298246 -3.07005,-3.589165 -7.06642,-7.859649 -11.78947,-7.859649 z"
       id="path4203"
       inkscape:connector-curvature="0"
       sodipodi:nodetypes="caaaaacsasc" />
    <path
       style="fill:#009caa;fill-opacity:1;fill-rule:evenodd;stroke:#202020;stroke-width:3;stroke-linecap:butt;stroke-linejoin:miter;stroke-miterlimit:4;stroke-dasharray:none;stroke-opacity:1"
       d="m 19.087719,327.85965 c 0,0 11.60187,0.38943 17.403509,0.5614 6.923464,0.20523 13.858115,0.14233 20.77193,0.56141 9.943915,0.60275 19.849284,1.74225 29.754386,2.80701 10.869942,1.16848 21.745396,2.33772 32.561406,3.92983 8.64425,1.27243 17.38862,2.21591 25.82456,4.49123 5.20214,1.40311 10.89758,2.31543 15.15789,5.61403 4.14571,3.20987 6.79325,8.14809 8.98246,12.91228 2.17943,4.7429 2.74572,10.0743 3.92982,15.1579 1.25719,5.39735 2.40538,10.82318 3.36843,16.2807 1.34751,7.63625 2.43027,15.32027 3.36841,23.01754 0.93266,7.65232 1.65741,15.33108 2.24562,23.01755 0.77224,10.09134 1.4034,20.19884 1.68421,30.31578 0.23365,8.41781 0,25.26316 0,25.26316 l 30.87719,0.56141 c 66.62175,1.21132 50.44667,-152.15107 3.92983,-199.85965 C 172.56943,244.9251 19.649123,291.36842 19.649123,291.36842 Z"
       id="path4205"
       inkscape:connector-curvature="0"
       sodipodi:nodetypes="caaaaaaaaaaaacsacc" />
  </g>
  <g
     inkscape:groupmode="layer"
     id="layer7"
     inkscape:label="Layer 6"
     style="display:inline"
     sodipodi:insensitive="true">
    <path
       style="fill:#00bf3e;fill-opacity:1;fill-rule:evenodd;stroke:#202020;stroke-width:3;stroke-linecap:butt;stroke-linejoin:miter;stroke-miterlimit:4;stroke-dasharray:none;stroke-opacity:1"
       d="m 21.333333,115.08772 c 0.04242,-15.355237 -1.914524,-30.68152 -1.68421,-46.035088 0.168784,-11.251728 -0.07453,-22.672998 2.245614,-33.684211 0.903215,-4.286583 1.12265,-9.550293 4.491228,-12.350877 4.376503,-3.638557 11.170024,-2.337582 16.842105,-2.807018 13.241278,-1.095882 26.573114,0.01986 39.859649,0 L 458.66667,19.649123 c 2.67936,-0.004 0.75913,5.345053 1.68421,7.859649 0.95396,2.593101 2.24711,5.10674 3.92982,7.298246 2.6606,3.465076 6.1238,6.264239 9.54386,8.982456 3.69748,2.938703 7.42594,6.052211 11.78948,7.859649 1.76313,0.730314 5.6089,-0.785589 5.61403,1.122807 l 1.12281,417.68421 c 0.008,2.9051 -1.28638,5.67888 -2.24562,8.42105 -1.07912,3.08487 -1.43374,6.87285 -3.92982,8.98246 -2.94648,2.49027 -7.43769,2.0885 -11.22807,2.80702 -4.26461,0.80841 -8.57174,1.67513 -12.91228,1.68421 l -268.35088,0.5614 c 0,0 0.28058,-33.68655 0,-50.52632 -0.28074,-16.84912 -0.66256,-33.70585 -1.68421,-50.52631 -0.77448,-12.75109 -1.11748,-25.60073 -3.36842,-38.17544 -0.75192,-4.20056 -1.28632,-8.62598 -3.36842,-12.35088 -2.0025,-3.5825 -5.24523,-6.38275 -8.42105,-8.98245 -3.57642,-2.92763 -7.41399,-5.80932 -11.78948,-7.29825 -8.72583,-2.96931 -18.31123,-2.20526 -27.50877,-2.80702 -12.89014,-0.84335 -25.82706,-0.67045 -38.736842,-1.1228 -13.663964,-0.47878 -27.316107,-1.27921 -40.982457,-1.68421 -10.289581,-0.30493 -20.598333,-0.001 -30.877193,-0.56141 -2.063908,-0.11243 -6.175438,-0.5614 -6.175438,-0.5614 z"
       id="path4200"
       inkscape:connector-curvature="0"
       sodipodi:nodetypes="saaaassaaaassaaascaaaaaaaaaacs" />
  </g>
  <g
     inkscape:groupmode="layer"
     id="layer6"
     inkscape:label="Layer 5"
     sodipodi:insensitive="true"
     style="display:inline">
    <path
       style="fill:#5cd400;fill-opacity:1;fill-rule:evenodd;stroke:#202020;stroke-width:3;stroke-linecap:butt;stroke-linejoin:miter;stroke-miterlimit:4;stroke-dasharray:none;stroke-opacity:1"
       d="m 20.77193,85.333333 c 0,0 16.592408,-0.634336 24.701754,-2.245614 8.650082,-1.718719 17.047181,-4.654087 25.263158,-7.859649 7.330373,-2.860033 14.429864,-6.329515 21.333333,-10.105263 4.646677,-2.541429 9.095175,-5.441256 13.473685,-8.421052 4.42472,-3.011253 9.01915,-5.871075 12.91228,-9.54386 5.31566,-5.014802 9.69697,-10.961187 14.03509,-16.842106 2.64986,-3.592247 7.29824,-11.22807 7.29824,-11.22807 l 162.24562,0.561404 c 0,0 2.58849,8.404973 4.49123,12.350877 2.95533,6.128751 6.51117,12.015799 10.66667,17.403509 3.79916,4.925717 8.6211,8.970107 12.91227,13.473684 6.75725,7.091724 13.47918,14.217025 20.21053,21.333333 6.36777,6.73193 12.44152,13.753323 19.08771,20.210524 8.27053,8.03535 17.49771,15.04059 25.82457,23.01755 6.59387,6.31679 12.72515,13.09941 19.08772,19.64912 6.36257,6.54971 12.63683,13.18638 19.08772,19.64912 7.38562,7.39918 14.62227,14.97189 22.45614,21.89474 6.2852,5.55428 12.58385,11.19871 19.64912,15.7193 4.9346,3.15732 15.7193,7.85965 15.7193,7.85965 l 1.68421,163.92982 c -11.22807,4.49123 -7.84123,2.30529 -11.22807,4.49123 -5.67118,3.6603 -9.81872,9.26717 -14.59649,14.03509 -5.33965,5.32865 -11.30701,10.16203 -15.7193,16.2807 -5.43433,7.53596 -9.27959,16.15036 -12.91228,24.70175 -3.23927,7.62529 -5.98675,15.50863 -7.85965,23.57895 -1.5795,6.80604 -1.86717,13.84852 -2.80702,20.77193 -0.55892,4.1173 0,0 -1.68421,12.35088 l -221.19298,0 c 0,0 0.64796,-29.58146 0,-44.35088 -0.74926,-17.07849 -3.21596,-34.04043 -4.49123,-51.08772 -1.13291,-15.14443 -0.48777,-30.46507 -2.80701,-45.47368 -1.17831,-7.62525 -1.92124,-15.68148 -5.61404,-22.45615 -1.96428,-3.60359 -4.81037,-7.03123 -8.42105,-8.98245 -6.68539,-3.61281 -14.93427,-2.84892 -22.45614,-3.92983 -13.23468,-1.90183 -26.52886,-3.45983 -39.85965,-4.49122 -13.25878,-1.02582 -26.571684,-1.15741 -39.859651,-1.68421 -10.104254,-0.40058 -20.219157,-0.56208 -30.31579,-1.12281 -10.117358,-0.56188 -30.315789,-2.24561 -30.315789,-2.24561 z"
       id="path4197"
       inkscape:connector-curvature="0"
       sodipodi:nodetypes="caaaaaaccaaaaaaaaaaccaaaaaaccaaaaaaaaacc" />
  </g>
  <g
     inkscape:groupmode="layer"
     id="layer5"
     inkscape:label="Layer 4"
     style="display:inline"
     sodipodi:insensitive="true">
    <path
       style="fill:#eabd00;fill-opacity:1;fill-rule:evenodd;stroke:#202020;stroke-width:3;stroke-linecap:butt;stroke-linejoin:miter;stroke-miterlimit:4;stroke-dasharray:none;stroke-opacity:1"
       d="m 21.333333,194.24561 c 0,0 14.740563,-0.62004 21.894737,-2.24561 7.561496,-1.71813 14.754506,-4.83553 21.894737,-7.85965 10.943122,-4.63476 21.443574,-10.26084 32,-15.7193 8.702763,-4.49998 17.055323,-9.66606 25.824563,-14.03509 10.11937,-5.0417 20.41956,-9.73875 30.87719,-14.03508 10.51478,-4.3198 20.96004,-9.08013 32,-11.78948 11.36139,-2.78823 23.10887,-4.39693 34.80702,-4.49122 13.37019,-0.10777 26.88422,1.26448 39.85965,4.49122 12.88232,3.20359 25.21961,8.5801 37.05263,14.59649 10.27346,5.22344 20.29659,11.19948 29.19298,18.52632 7.56132,6.22731 13.9048,13.83728 20.21053,21.33333 7.6616,9.10786 15.39247,18.31851 21.33333,28.63158 4.97969,8.64452 8.68565,18.02768 11.78948,27.50877 4.1239,12.59704 7.70677,25.54349 8.98245,38.73685 1.02722,10.62368 0.78902,21.49939 -1.12281,32 -3.14822,17.29145 -10.13896,33.71766 -16.8421,49.96491 -5.1708,12.53313 -11.74406,24.44476 -17.96491,36.49123 -5.95503,11.53172 -12.70732,22.64465 -18.52632,34.24561 -3.79144,7.55874 -8.12772,14.95137 -10.66667,23.01755 -2.568,8.15847 -3.38635,16.78173 -4.49122,25.26315 -0.58218,4.46904 -1.12281,13.47369 -1.12281,13.47369 l -93.75439,0 c 0.63504,-12.44162 -0.0439,-32.63452 -1.68421,-48.84211 -1.47142,-14.53901 -4.62305,-28.86175 -7.29824,-43.22807 -1.88792,-10.13851 -4.14695,-20.20446 -6.17544,-30.31579 -3.03911,-15.14894 -1.84204,-31.77182 -8.98246,-45.47369 -3.11936,-5.98579 -7.98671,-11.60028 -14.03508,-14.59649 -13.16639,-6.52228 -29.3687,-2.23565 -43.78948,-5.05262 -10.29333,-2.01071 -20.0321,-6.36159 -30.31579,-8.42106 C 98.966528,293.75468 85.335438,293.0357 71.859649,291.36842 62.691476,290.23409 53.556258,288.77656 44.350877,288 36.323906,287.32285 20.210526,286.87719 20.210526,286.87719 Z"
       id="path4194"
       inkscape:connector-curvature="0"
       sodipodi:nodetypes="caaaaaaaaaaaaaaaaaaaaccaaaaaaaaacc" />
  </g>
  <g
     inkscape:groupmode="layer"
     id="layer4"
     inkscape:label="Layer 3"
     style="display:inline"
     sodipodi:insensitive="true">
    <path
       style="fill:#ff0000;fill-opacity:1;fill-rule:evenodd;stroke:#202020;stroke-width:3;stroke-linecap:butt;stroke-linejoin:miter;stroke-miterlimit:4;stroke-dasharray:none;stroke-opacity:1"
       d="M 167.85965,280.14035 C 152.97023,278.10998 151.8463,261.5374 151.8463,261.5374 c -2.30817,-6.84727 6.85628,-15.45283 13.20633,-24.62512 15.1579,-21.89474 16.3423,-17.53191 26.94737,-22.45614 11.71997,-5.44191 25.35607,-8.3604 38.17544,-6.73685 15.70265,1.98872 30.74916,9.91234 43.22806,19.64913 9.23966,7.20934 17.15799,16.78921 21.89474,27.50878 4.75002,10.74958 5.85341,23.05716 5.61404,34.80701 -0.22949,11.26465 -2.53692,22.66787 -6.73684,33.12281 -3.13517,7.80447 -7.49188,15.42088 -13.47368,21.33333 -6.09475,6.02409 -13.35798,12.7259 -21.89474,13.47369 -9.62372,0.843 -20.99305,-3.05927 -26.94738,-10.66667 -4.30641,-5.50198 0.34127,-14.53453 -2.80701,-20.77193 -3.81737,-7.56299 -12.16104,-11.79802 -18.24155,-17.69703 -6.4575,-6.26474 -11.5634,-14.32605 -19.37248,-18.7942 -4.8863,-2.79581 -6.12836,-5.47525 -11.22808,-7.85965 -2.68035,-1.25321 0,0 -12.35087,-1.68421 z"
       id="path4191"
       inkscape:connector-curvature="0"
       sodipodi:nodetypes="sssssssssssssssss" />
  </g>
  <g
     inkscape:label="Layer 1"
     inkscape:groupmode="layer"
     id="layer1"
     transform="translate(0,-540.36216)"
     style="display:inline"
     sodipodi:insensitive="true">
    <path
       style="fill:none;fill-rule:evenodd;stroke:#202020;stroke-width:5;stroke-linecap:butt;stroke-linejoin:miter;stroke-miterlimit:4;stroke-dasharray:none;stroke-opacity:1"
       d="m 20.000437,580.36216 c 0,0 1.272864,-11.2732 4.999563,-15 3.726731,-3.72683 15,-5 15,-5 l 432,0 c 0,0 11.27322,1.27322 15,5 3.72678,3.72678 5,15 5,15 l 0,432.00004 c 0,0 -1.27323,11.2732 -5,15 -3.72678,3.7267 -15,5 -15,5 l -432,0 c 0,0 -11.27322,-1.2733 -15,-5 -3.72678,-3.7268 -5,-15 -5,-15 z"
       id="path4184"
       inkscape:connector-curvature="0"
       sodipodi:nodetypes="caccaccaccacc" />
  </g>
</svg>
